<mxfile host="app.diagrams.net" modified="2020-12-01T08:48:31.000Z" agent="5.0 (Windows NT 10.0; Win64; x64) AppleWebKit/537.36 (KHTML, like Gecko) Chrome/86.0.4240.198 Safari/537.36" etag="ghHlQhIW5d4-dnPKGBvE" version="13.10.4" type="github">
  <diagram id="j12a4eqQzq2RAFbl9snG" name="Page-1">
    <mxGraphModel dx="1185" dy="588" grid="1" gridSize="10" guides="1" tooltips="1" connect="1" arrows="1" fold="1" page="1" pageScale="1" pageWidth="827" pageHeight="1169" math="0" shadow="0">
      <root>
        <mxCell id="0" />
        <mxCell id="1" parent="0" />
        <mxCell id="PU8bBQ2o0Tv29JzaatMH-1" value="yts_question" style="shape=table;startSize=30;container=1;collapsible=1;childLayout=tableLayout;fixedRows=1;rowLines=0;fontStyle=1;align=center;resizeLast=1;" parent="1" vertex="1">
          <mxGeometry x="50" y="120" width="160" height="120" as="geometry" />
        </mxCell>
        <mxCell id="PU8bBQ2o0Tv29JzaatMH-2" value="" style="shape=partialRectangle;collapsible=0;dropTarget=0;pointerEvents=0;fillColor=none;top=0;left=0;bottom=1;right=0;points=[[0,0.5],[1,0.5]];portConstraint=eastwest;" parent="PU8bBQ2o0Tv29JzaatMH-1" vertex="1">
          <mxGeometry y="30" width="160" height="20" as="geometry" />
        </mxCell>
        <mxCell id="PU8bBQ2o0Tv29JzaatMH-3" value="PK" style="shape=partialRectangle;connectable=0;fillColor=none;top=0;left=0;bottom=0;right=0;fontStyle=1;overflow=hidden;" parent="PU8bBQ2o0Tv29JzaatMH-2" vertex="1">
          <mxGeometry width="30" height="20" as="geometry" />
        </mxCell>
        <mxCell id="PU8bBQ2o0Tv29JzaatMH-4" value="id" style="shape=partialRectangle;connectable=0;fillColor=none;top=0;left=0;bottom=0;right=0;align=left;spacingLeft=6;fontStyle=5;overflow=hidden;" parent="PU8bBQ2o0Tv29JzaatMH-2" vertex="1">
          <mxGeometry x="30" width="130" height="20" as="geometry" />
        </mxCell>
        <mxCell id="PU8bBQ2o0Tv29JzaatMH-5" value="" style="shape=partialRectangle;collapsible=0;dropTarget=0;pointerEvents=0;fillColor=none;top=0;left=0;bottom=0;right=0;points=[[0,0.5],[1,0.5]];portConstraint=eastwest;" parent="PU8bBQ2o0Tv29JzaatMH-1" vertex="1">
          <mxGeometry y="50" width="160" height="20" as="geometry" />
        </mxCell>
        <mxCell id="PU8bBQ2o0Tv29JzaatMH-6" value="" style="shape=partialRectangle;connectable=0;fillColor=none;top=0;left=0;bottom=0;right=0;editable=1;overflow=hidden;" parent="PU8bBQ2o0Tv29JzaatMH-5" vertex="1">
          <mxGeometry width="30" height="20" as="geometry" />
        </mxCell>
        <mxCell id="PU8bBQ2o0Tv29JzaatMH-7" value="name" style="shape=partialRectangle;connectable=0;fillColor=none;top=0;left=0;bottom=0;right=0;align=left;spacingLeft=6;overflow=hidden;" parent="PU8bBQ2o0Tv29JzaatMH-5" vertex="1">
          <mxGeometry x="30" width="130" height="20" as="geometry" />
        </mxCell>
        <mxCell id="PU8bBQ2o0Tv29JzaatMH-8" value="" style="shape=partialRectangle;collapsible=0;dropTarget=0;pointerEvents=0;fillColor=none;top=0;left=0;bottom=0;right=0;points=[[0,0.5],[1,0.5]];portConstraint=eastwest;" parent="PU8bBQ2o0Tv29JzaatMH-1" vertex="1">
          <mxGeometry y="70" width="160" height="20" as="geometry" />
        </mxCell>
        <mxCell id="PU8bBQ2o0Tv29JzaatMH-9" value="" style="shape=partialRectangle;connectable=0;fillColor=none;top=0;left=0;bottom=0;right=0;editable=1;overflow=hidden;" parent="PU8bBQ2o0Tv29JzaatMH-8" vertex="1">
          <mxGeometry width="30" height="20" as="geometry" />
        </mxCell>
        <mxCell id="PU8bBQ2o0Tv29JzaatMH-10" value="describe" style="shape=partialRectangle;connectable=0;fillColor=none;top=0;left=0;bottom=0;right=0;align=left;spacingLeft=6;overflow=hidden;" parent="PU8bBQ2o0Tv29JzaatMH-8" vertex="1">
          <mxGeometry x="30" width="130" height="20" as="geometry" />
        </mxCell>
        <mxCell id="PU8bBQ2o0Tv29JzaatMH-26" value="yts_question_topic" style="shape=table;startSize=30;container=1;collapsible=1;childLayout=tableLayout;fixedRows=1;rowLines=0;fontStyle=1;align=center;resizeLast=1;" parent="1" vertex="1">
          <mxGeometry x="440" y="120" width="240" height="190" as="geometry" />
        </mxCell>
        <mxCell id="PU8bBQ2o0Tv29JzaatMH-27" value="" style="shape=partialRectangle;collapsible=0;dropTarget=0;pointerEvents=0;fillColor=none;top=0;left=0;bottom=0;right=0;points=[[0,0.5],[1,0.5]];portConstraint=eastwest;" parent="PU8bBQ2o0Tv29JzaatMH-26" vertex="1">
          <mxGeometry y="30" width="240" height="20" as="geometry" />
        </mxCell>
        <mxCell id="PU8bBQ2o0Tv29JzaatMH-28" value="PK" style="shape=partialRectangle;connectable=0;fillColor=none;top=0;left=0;bottom=0;right=0;fontStyle=1;overflow=hidden;" parent="PU8bBQ2o0Tv29JzaatMH-27" vertex="1">
          <mxGeometry width="60" height="20" as="geometry" />
        </mxCell>
        <mxCell id="PU8bBQ2o0Tv29JzaatMH-29" value="id" style="shape=partialRectangle;connectable=0;fillColor=none;top=0;left=0;bottom=0;right=0;align=left;spacingLeft=6;fontStyle=5;overflow=hidden;" parent="PU8bBQ2o0Tv29JzaatMH-27" vertex="1">
          <mxGeometry x="60" width="180" height="20" as="geometry" />
        </mxCell>
        <mxCell id="PU8bBQ2o0Tv29JzaatMH-30" value="" style="shape=partialRectangle;collapsible=0;dropTarget=0;pointerEvents=0;fillColor=none;top=0;left=0;bottom=1;right=0;points=[[0,0.5],[1,0.5]];portConstraint=eastwest;" parent="PU8bBQ2o0Tv29JzaatMH-26" vertex="1">
          <mxGeometry y="50" width="240" height="20" as="geometry" />
        </mxCell>
        <mxCell id="PU8bBQ2o0Tv29JzaatMH-31" value="FK" style="shape=partialRectangle;connectable=0;fillColor=none;top=0;left=0;bottom=0;right=0;fontStyle=1;overflow=hidden;" parent="PU8bBQ2o0Tv29JzaatMH-30" vertex="1">
          <mxGeometry width="60" height="20" as="geometry" />
        </mxCell>
        <mxCell id="PU8bBQ2o0Tv29JzaatMH-32" value="question_id" style="shape=partialRectangle;connectable=0;fillColor=none;top=0;left=0;bottom=0;right=0;align=left;spacingLeft=6;fontStyle=1;overflow=hidden;strokeColor=none;" parent="PU8bBQ2o0Tv29JzaatMH-30" vertex="1">
          <mxGeometry x="60" width="180" height="20" as="geometry" />
        </mxCell>
        <mxCell id="PU8bBQ2o0Tv29JzaatMH-33" value="" style="shape=partialRectangle;collapsible=0;dropTarget=0;pointerEvents=0;fillColor=none;top=0;left=0;bottom=0;right=0;points=[[0,0.5],[1,0.5]];portConstraint=eastwest;" parent="PU8bBQ2o0Tv29JzaatMH-26" vertex="1">
          <mxGeometry y="70" width="240" height="20" as="geometry" />
        </mxCell>
        <mxCell id="PU8bBQ2o0Tv29JzaatMH-34" value="" style="shape=partialRectangle;connectable=0;fillColor=none;top=0;left=0;bottom=0;right=0;editable=1;overflow=hidden;" parent="PU8bBQ2o0Tv29JzaatMH-33" vertex="1">
          <mxGeometry width="60" height="20" as="geometry" />
        </mxCell>
        <mxCell id="PU8bBQ2o0Tv29JzaatMH-35" value="name" style="shape=partialRectangle;connectable=0;fillColor=none;top=0;left=0;bottom=0;right=0;align=left;spacingLeft=6;overflow=hidden;" parent="PU8bBQ2o0Tv29JzaatMH-33" vertex="1">
          <mxGeometry x="60" width="180" height="20" as="geometry" />
        </mxCell>
        <mxCell id="PU8bBQ2o0Tv29JzaatMH-36" value="" style="shape=partialRectangle;collapsible=0;dropTarget=0;pointerEvents=0;fillColor=none;top=0;left=0;bottom=0;right=0;points=[[0,0.5],[1,0.5]];portConstraint=eastwest;" parent="PU8bBQ2o0Tv29JzaatMH-26" vertex="1">
          <mxGeometry y="90" width="240" height="20" as="geometry" />
        </mxCell>
        <mxCell id="PU8bBQ2o0Tv29JzaatMH-37" value="" style="shape=partialRectangle;connectable=0;fillColor=none;top=0;left=0;bottom=0;right=0;editable=1;overflow=hidden;" parent="PU8bBQ2o0Tv29JzaatMH-36" vertex="1">
          <mxGeometry width="60" height="20" as="geometry" />
        </mxCell>
        <mxCell id="PU8bBQ2o0Tv29JzaatMH-38" value="option_a" style="shape=partialRectangle;connectable=0;fillColor=none;top=0;left=0;bottom=0;right=0;align=left;spacingLeft=6;overflow=hidden;" parent="PU8bBQ2o0Tv29JzaatMH-36" vertex="1">
          <mxGeometry x="60" width="180" height="20" as="geometry" />
        </mxCell>
        <mxCell id="PU8bBQ2o0Tv29JzaatMH-40" value="option_b" style="shape=partialRectangle;connectable=0;fillColor=none;top=0;left=0;bottom=0;right=0;align=left;spacingLeft=6;overflow=hidden;" parent="1" vertex="1">
          <mxGeometry x="500" y="230" width="180" height="20" as="geometry" />
        </mxCell>
        <mxCell id="PU8bBQ2o0Tv29JzaatMH-41" value="option_c" style="shape=partialRectangle;connectable=0;fillColor=none;top=0;left=0;bottom=0;right=0;align=left;spacingLeft=6;overflow=hidden;" parent="1" vertex="1">
          <mxGeometry x="500" y="250" width="180" height="20" as="geometry" />
        </mxCell>
        <mxCell id="PU8bBQ2o0Tv29JzaatMH-42" value="option_d" style="shape=partialRectangle;connectable=0;fillColor=none;top=0;left=0;bottom=0;right=0;align=left;spacingLeft=6;overflow=hidden;" parent="1" vertex="1">
          <mxGeometry x="500" y="270" width="180" height="20" as="geometry" />
        </mxCell>
        <mxCell id="PU8bBQ2o0Tv29JzaatMH-43" value="type   (1选择题，2问答题)" style="shape=partialRectangle;connectable=0;fillColor=none;top=0;left=0;bottom=0;right=0;align=left;spacingLeft=6;overflow=hidden;" parent="1" vertex="1">
          <mxGeometry x="500" y="290" width="180" height="20" as="geometry" />
        </mxCell>
        <mxCell id="m7RAE9o-WgXZ6OsV-Fjk-3" value="yts_question_answer" style="shape=table;startSize=30;container=1;collapsible=1;childLayout=tableLayout;fixedRows=1;rowLines=0;fontStyle=1;align=center;resizeLast=1;" vertex="1" parent="1">
          <mxGeometry x="50" y="402.5" width="230" height="178.5" as="geometry" />
        </mxCell>
        <mxCell id="m7RAE9o-WgXZ6OsV-Fjk-4" value="" style="shape=partialRectangle;collapsible=0;dropTarget=0;pointerEvents=0;fillColor=none;top=0;left=0;bottom=0;right=0;points=[[0,0.5],[1,0.5]];portConstraint=eastwest;" vertex="1" parent="m7RAE9o-WgXZ6OsV-Fjk-3">
          <mxGeometry y="30" width="230" height="28" as="geometry" />
        </mxCell>
        <mxCell id="m7RAE9o-WgXZ6OsV-Fjk-5" value="PK" style="shape=partialRectangle;connectable=0;fillColor=none;top=0;left=0;bottom=0;right=0;fontStyle=1;overflow=hidden;" vertex="1" parent="m7RAE9o-WgXZ6OsV-Fjk-4">
          <mxGeometry width="60" height="28" as="geometry" />
        </mxCell>
        <mxCell id="m7RAE9o-WgXZ6OsV-Fjk-6" value="id" style="shape=partialRectangle;connectable=0;fillColor=none;top=0;left=0;bottom=0;right=0;align=left;spacingLeft=6;fontStyle=5;overflow=hidden;" vertex="1" parent="m7RAE9o-WgXZ6OsV-Fjk-4">
          <mxGeometry x="60" width="170" height="28" as="geometry" />
        </mxCell>
        <mxCell id="m7RAE9o-WgXZ6OsV-Fjk-7" value="" style="shape=partialRectangle;collapsible=0;dropTarget=0;pointerEvents=0;fillColor=none;top=0;left=0;bottom=1;right=0;points=[[0,0.5],[1,0.5]];portConstraint=eastwest;" vertex="1" parent="m7RAE9o-WgXZ6OsV-Fjk-3">
          <mxGeometry y="58" width="230" height="68" as="geometry" />
        </mxCell>
        <mxCell id="m7RAE9o-WgXZ6OsV-Fjk-8" value="FK" style="shape=partialRectangle;connectable=0;fillColor=none;top=0;left=0;bottom=0;right=0;fontStyle=1;overflow=hidden;" vertex="1" parent="m7RAE9o-WgXZ6OsV-Fjk-7">
          <mxGeometry width="60" height="68" as="geometry" />
        </mxCell>
        <mxCell id="m7RAE9o-WgXZ6OsV-Fjk-9" value="question_id   问卷id&#xa;company_id  单位id&#xa;topic_id   题目id" style="shape=partialRectangle;connectable=0;fillColor=none;top=0;left=0;bottom=0;right=0;align=left;spacingLeft=6;fontStyle=1;overflow=hidden;strokeColor=none;" vertex="1" parent="m7RAE9o-WgXZ6OsV-Fjk-7">
          <mxGeometry x="60" width="170" height="68" as="geometry" />
        </mxCell>
        <mxCell id="m7RAE9o-WgXZ6OsV-Fjk-10" value="" style="shape=partialRectangle;collapsible=0;dropTarget=0;pointerEvents=0;fillColor=none;top=0;left=0;bottom=0;right=0;points=[[0,0.5],[1,0.5]];portConstraint=eastwest;" vertex="1" parent="m7RAE9o-WgXZ6OsV-Fjk-3">
          <mxGeometry y="126" width="230" height="53" as="geometry" />
        </mxCell>
        <mxCell id="m7RAE9o-WgXZ6OsV-Fjk-11" value="" style="shape=partialRectangle;connectable=0;fillColor=none;top=0;left=0;bottom=0;right=0;editable=1;overflow=hidden;" vertex="1" parent="m7RAE9o-WgXZ6OsV-Fjk-10">
          <mxGeometry width="60" height="53" as="geometry" />
        </mxCell>
        <mxCell id="m7RAE9o-WgXZ6OsV-Fjk-12" value="topic_name  题目名称&#xa;answer  题目答案" style="shape=partialRectangle;connectable=0;fillColor=none;top=0;left=0;bottom=0;right=0;align=left;spacingLeft=6;overflow=hidden;" vertex="1" parent="m7RAE9o-WgXZ6OsV-Fjk-10">
          <mxGeometry x="60" width="170" height="53" as="geometry" />
        </mxCell>
        <mxCell id="m7RAE9o-WgXZ6OsV-Fjk-23" style="edgeStyle=orthogonalEdgeStyle;rounded=0;orthogonalLoop=1;jettySize=auto;html=1;exitX=1;exitY=0.5;exitDx=0;exitDy=0;" edge="1" parent="1" source="PU8bBQ2o0Tv29JzaatMH-2" target="PU8bBQ2o0Tv29JzaatMH-27">
          <mxGeometry relative="1" as="geometry" />
        </mxCell>
        <mxCell id="m7RAE9o-WgXZ6OsV-Fjk-24" style="edgeStyle=orthogonalEdgeStyle;rounded=0;orthogonalLoop=1;jettySize=auto;html=1;exitX=1;exitY=0.5;exitDx=0;exitDy=0;entryX=0;entryY=0.5;entryDx=0;entryDy=0;" edge="1" parent="1" source="m7RAE9o-WgXZ6OsV-Fjk-7" target="PU8bBQ2o0Tv29JzaatMH-27">
          <mxGeometry relative="1" as="geometry" />
        </mxCell>
      </root>
    </mxGraphModel>
  </diagram>
</mxfile>
